<?xml version="1.0" standalone="no"?>
<!DOCTYPE svg PUBLIC "-//W3C//DTD SVG 20010904//EN"
 "http://www.w3.org/TR/2001/REC-SVG-20010904/DTD/svg10.dtd">
<svg version="1.0" xmlns="http://www.w3.org/2000/svg"
 width="163.000000pt" height="233.000000pt" viewBox="0 0 163.000000 233.000000"
 preserveAspectRatio="xMidYMid meet">
<metadata>
Created by potrace 1.10, written by Peter Selinger 2001-2011
</metadata>
<g transform="translate(0.000000,233.000000) scale(0.050000,-0.050000)"
fill="#0b5394" stroke="none">
<path d="M1500 4408 c-318 -53 -460 -108 -672 -259 -442 -315 -654 -988 -471
-1494 38 -107 1163 -2293 1209 -2351 33 -41 99 -19 135 46 366 663 1180 2303
1210 2438 188 863 -589 1756 -1411 1620z m458 -301 c758 -249 986 -1206 420
-1768 -431 -429 -1088 -427 -1523 3 -798 790 31 2117 1103 1765z m-1043 -2021
c14 -13 25 -33 25 -46 0 -12 8 -17 19 -11 10 7 72 -14 138 -46 66 -32 154 -64
196 -72 42 -9 100 -21 127 -27 83 -21 463 -9 486 14 12 12 43 22 69 22 50 0
265 102 343 163 26 20 66 36 90 35 23 0 31 -6 17 -11 -14 -6 -31 -46 -38 -90
-8 -50 -21 -76 -37 -70 -16 6 -21 -7 -15 -39 6 -27 0 -48 -13 -48 -12 0 -22
-19 -22 -42 0 -32 -9 -39 -34 -29 -19 7 -29 7 -21 0 7 -8 -23 -85 -66 -171
-44 -87 -74 -158 -68 -158 7 0 -2 -14 -20 -31 -17 -18 -31 -50 -31 -73 0 -28
-9 -37 -31 -28 -19 7 -26 3 -18 -9 23 -37 -9 -93 -33 -58 -16 22 -18 19 -8
-15 7 -26 -1 -64 -19 -92 -17 -26 -24 -55 -16 -64 8 -9 5 -11 -7 -4 -24 14
-188 -297 -188 -356 0 -21 -11 -30 -28 -24 -20 8 -24 -1 -17 -31 9 -33 4 -39
-22 -29 -19 7 -31 3 -28 -9 3 -12 -6 -26 -20 -31 -14 -5 -25 0 -25 12 0 12
-12 22 -28 22 -15 0 -32 16 -38 35 -7 19 -27 62 -46 95 -55 97 -64 114 -120
235 -29 63 -62 115 -72 115 -10 0 -13 9 -6 20 7 11 2 20 -11 20 -14 0 -19 17
-14 39 8 28 3 35 -21 26 -19 -7 -25 -4 -17 10 7 12 -1 36 -19 54 -21 21 -28
51 -21 87 6 30 7 43 1 29 -16 -35 -48 -31 -48 5 0 36 -147 334 -204 415 -24
34 -34 72 -28 100 7 25 6 34 0 20 -20 -45 -53 -26 -43 25 6 34 0 50 -18 50
-15 0 -27 21 -27 48 0 52 49 61 95 18z"/>
<path d="M1361 3914 c-83 -41 -116 -120 -83 -198 15 -36 56 -211 91 -388 81
-404 50 -368 321 -368 l228 0 20 -75 c11 -41 34 -133 51 -205 58 -236 81 -253
273 -200 173 48 171 219 -3 190 -73 -12 -78 -10 -90 43 -104 455 -81 427 -359
427 l-225 0 -9 57 -8 56 146 -9 c160 -10 206 9 206 86 0 71 -40 88 -221 94
l-169 6 -17 92 c-15 85 -12 97 35 144 124 125 -30 328 -187 248z"/>
<path d="M1187 3301 c-342 -252 -298 -763 83 -967 253 -136 717 27 679 239
-21 114 -30 118 -77 35 -65 -116 -206 -195 -348 -195 -407 1 -583 471 -279
749 70 64 78 80 66 135 -17 77 -23 78 -124 4z"/>
</g>
</svg>
