<?xml version="1.0" standalone="no"?>
<!DOCTYPE svg PUBLIC "-//W3C//DTD SVG 20010904//EN"
 "http://www.w3.org/TR/2001/REC-SVG-20010904/DTD/svg10.dtd">
<svg version="1.0" xmlns="http://www.w3.org/2000/svg"
 width="552.000000pt" height="600.000000pt" viewBox="0 0 552.000000 600.000000"
 preserveAspectRatio="xMidYMid meet">

<g transform="translate(0.000000,600.000000) scale(0.100000,-0.100000)"
fill="#000000" stroke="none">
<path d="M0 3000 l0 -3000 2760 0 2760 0 0 3000 0 3000 -2760 0 -2760 0 0
-3000z m3110 2331 c365 -84 608 -217 860 -470 272 -273 425 -584 475 -964 41
-320 -6 -623 -146 -926 -57 -122 -116 -214 -257 -396 -226 -293 -420 -609
-573 -930 -79 -169 -200 -474 -309 -780 -99 -280 -109 -301 -167 -357 -59 -58
-123 -82 -218 -82 -68 0 -89 5 -139 29 -34 17 -75 49 -100 77 -43 49 -44 51
-161 383 -249 703 -474 1133 -870 1660 -193 258 -264 388 -334 609 -223 702
49 1471 669 1893 150 102 350 191 539 238 157 40 201 44 426 41 172 -3 227 -8
305 -25z"/>
<path d="M2585 4825 c-436 -80 -789 -389 -914 -800 -40 -130 -51 -206 -51
-341 0 -508 330 -954 815 -1103 130 -40 205 -51 341 -51 189 0 351 39 524 125
146 73 305 205 403 335 101 134 191 343 217 505 16 98 13 306 -4 397 -93 480
-468 849 -951 932 -106 19 -282 19 -380 1z m123 -244 c73 -38 112 -102 112
-186 0 -121 -84 -205 -205 -205 -121 0 -205 84 -205 205 0 86 39 150 115 189
42 22 137 21 183 -3z m15 -467 c18 -9 70 -47 117 -84 l85 -67 89 -5 c82 -4 91
-7 113 -32 32 -37 31 -89 -2 -122 -25 -25 -28 -26 -151 -22 l-125 3 5 -25 c3
-14 8 -55 12 -92 l6 -68 180 0 180 0 28 -28 c22 -23 45 -80 109 -279 45 -137
81 -262 81 -278 0 -41 -43 -93 -85 -101 -95 -18 -117 11 -196 256 l-64 200
-243 0 c-269 0 -299 6 -328 61 -17 34 -78 569 -69 615 5 30 36 66 65 77 35 13
162 7 193 -9z m-359 -206 c3 -13 7 -47 9 -77 4 -52 3 -54 -40 -98 -25 -24 -58
-72 -74 -106 -132 -284 72 -606 386 -608 134 0 272 66 355 171 l34 43 23 -74
c12 -41 23 -81 23 -91 0 -23 -117 -113 -192 -147 -81 -37 -150 -51 -246 -51
-255 0 -482 176 -547 426 -19 74 -19 213 0 287 30 117 106 233 202 309 27 21
51 38 55 38 4 0 10 -10 12 -22z"/>
</g>
</svg>
