<?xml version="1.0" standalone="no"?>
<!DOCTYPE svg PUBLIC "-//W3C//DTD SVG 20010904//EN"
 "http://www.w3.org/TR/2001/REC-SVG-20010904/DTD/svg10.dtd">
<svg version="1.0" xmlns="http://www.w3.org/2000/svg"
 width="489.000000pt" height="900.000000pt" viewBox="0 0 489.000000 900.000000"
 preserveAspectRatio="xMidYMid meet">
<metadata>
Created by potrace 1.10, written by Peter Selinger 2001-2011
</metadata>
<g transform="translate(0.000000,900.000000) scale(0.100000,-0.100000)"
fill="#ff9900" stroke="none">
<path d="M2185 8840 c-374 -43 -733 -168 -1015 -355 -417 -276 -731 -652 -903
-1082 -145 -361 -210 -803 -162 -1098 16 -103 65 -296 93 -370 11 -27 33 -86
50 -130 81 -213 118 -286 467 -900 60 -104 116 -201 125 -215 21 -30 268 -462
372 -650 506 -913 818 -1697 1043 -2625 44 -179 92 -405 106 -495 5 -36 14
-81 18 -100 5 -19 17 -91 27 -160 9 -69 21 -132 25 -140 9 -18 12 -5 34 145
53 362 186 938 312 1345 263 854 602 1576 1259 2683 52 87 94 160 94 162 0 2
24 44 53 92 56 92 217 381 217 388 0 3 17 33 38 67 119 194 259 550 317 803
26 111 28 136 27 320 -1 198 -11 301 -48 475 -131 613 -494 1132 -1048 1494
-235 154 -529 266 -861 327 -127 23 -503 34 -640 19z m420 -584 c323 -31 608
-135 865 -314 348 -243 598 -617 673 -1007 45 -234 38 -379 -39 -715 -9 -41
-22 -100 -29 -130 -28 -126 -120 -390 -169 -485 -131 -255 -345 -454 -650
-604 -136 -67 -172 -80 -336 -123 -170 -45 -276 -58 -465 -58 -261 0 -469 39
-658 126 -92 42 -102 50 -112 82 -5 19 -3 22 19 22 38 0 32 15 -21 49 -177
114 -287 206 -452 377 -74 77 -136 134 -138 127 -3 -7 -11 -9 -19 -6 -16 6
-18 0 -5 -25 5 -9 21 -42 36 -72 40 -79 84 -132 198 -242 56 -53 99 -99 96
-102 -9 -9 -101 58 -178 130 -200 187 -364 434 -436 660 -42 130 -55 231 -55
444 0 195 5 264 35 460 9 58 20 141 25 185 13 109 35 189 75 273 14 28 25 54
25 58 0 12 112 194 155 253 137 186 392 386 630 493 142 64 204 84 405 129 49
11 194 23 335 27 28 1 113 -5 190 -12z m-1154 -3123 c29 -17 38 -33 20 -33
-12 0 -69 49 -58 50 5 0 22 -8 38 -17z"/>
<path d="M1750 8045 c-33 -19 -10 -19 26 0 16 8 22 15 14 15 -8 -1 -26 -7 -40
-15z"/>
<path d="M1560 7955 c-7 -9 -10 -18 -7 -21 10 -11 37 5 37 21 0 19 -14 19 -30
0z"/>
<path d="M1473 7903 c-7 -3 -13 -14 -13 -25 0 -15 -5 -19 -19 -15 -24 6 -56
-26 -48 -48 8 -19 21 -19 41 0 8 8 18 15 23 15 5 0 17 10 27 21 19 23 11 60
-11 52z"/>
<path d="M1299 7762 c-72 -68 -106 -117 -89 -127 13 -8 50 23 50 42 0 7 5 13
10 13 13 0 50 37 50 50 0 6 6 10 13 10 6 0 23 9 37 20 23 18 24 20 9 36 -16
15 -21 12 -80 -44z"/>
<path d="M2539 7725 c-81 -53 -108 -121 -85 -211 8 -31 25 -68 38 -82 25 -27
136 -82 165 -82 25 0 76 33 122 79 63 63 66 160 6 241 -60 81 -170 105 -246
55z"/>
<path d="M3674 7594 c4 -9 43 -78 88 -152 106 -177 140 -243 193 -376 76 -193
86 -212 97 -191 16 28 3 110 -36 227 -66 198 -139 335 -235 438 -28 30 -51 58
-51 63 0 4 -14 7 -31 7 -25 0 -30 -3 -25 -16z"/>
<path d="M2629 7224 c-23 -24 -24 -34 -27 -162 -3 -107 -7 -141 -19 -154 -15
-16 -41 -18 -273 -18 -280 0 -312 -5 -335 -51 -14 -25 -14 -33 -1 -63 8 -19
25 -42 39 -50 42 -28 187 -41 313 -28 158 17 239 16 258 -4 23 -22 23 -186 0
-208 -13 -14 -51 -16 -259 -16 -134 0 -255 -4 -269 -10 -22 -8 -95 -65 -421
-329 -105 -85 -135 -117 -135 -149 0 -53 46 -101 97 -102 35 0 48 10 193 140
97 88 172 146 270 211 l55 36 170 8 c94 5 232 7 308 6 114 -3 142 0 162 13
l26 17 -3 440 -3 441 -33 29 c-41 37 -80 38 -113 3z"/>
<path d="M2864 6774 c-4 -14 -4 -51 -1 -81 6 -54 8 -58 80 -124 63 -58 83 -84
121 -161 25 -51 50 -113 55 -138 14 -60 14 -182 0 -255 -21 -114 -109 -261
-203 -337 -230 -185 -536 -183 -769 7 -81 66 -167 197 -182 278 -12 61 -27 64
-89 17 -83 -63 -84 -72 -16 -208 41 -83 66 -117 138 -190 73 -76 102 -97 181
-137 110 -54 156 -70 266 -90 101 -19 156 -19 244 0 164 34 357 159 473 305
157 199 195 469 101 720 -60 160 -187 314 -324 393 -57 33 -67 34 -75 1z"/>
</g>
</svg>
