<?xml version="1.0" standalone="no"?>
<!DOCTYPE svg PUBLIC "-//W3C//DTD SVG 20010904//EN"
 "http://www.w3.org/TR/2001/REC-SVG-20010904/DTD/svg10.dtd">
<svg version="1.0" xmlns="http://www.w3.org/2000/svg"
 width="528.000000pt" height="969.000000pt" viewBox="0 0 528.000000 969.000000"
 preserveAspectRatio="xMidYMid meet">
<metadata>
Created by potrace 1.10, written by Peter Selinger 2001-2011
</metadata>
<g transform="translate(0.000000,969.000000) scale(0.100000,-0.100000)"
fill="#65579c" stroke="none">
<path d="M2466 9529 c-81 -5 -183 -15 -225 -23 -42 -8 -96 -18 -121 -21 -82
-11 -262 -63 -415 -120 -462 -171 -899 -526 -1204 -980 -26 -38 -51 -77 -54
-85 -4 -8 -16 -28 -26 -45 -33 -52 -151 -295 -151 -311 0 -4 -13 -41 -29 -83
-34 -89 -83 -270 -105 -391 -118 -639 -9 -1069 492 -1940 52 -91 103 -178 112
-195 10 -16 51 -87 91 -157 285 -490 339 -584 392 -678 33 -58 71 -127 86
-155 15 -27 44 -79 64 -115 481 -869 831 -1757 1051 -2665 20 -82 40 -166 45
-185 5 -19 17 -71 26 -115 9 -44 22 -109 30 -145 7 -36 21 -108 30 -160 9 -52
23 -131 30 -175 8 -44 17 -115 21 -157 5 -75 16 -100 34 -82 5 5 13 56 19 114
6 58 17 141 26 185 9 44 22 118 30 165 8 47 21 114 29 150 8 36 19 90 26 120
72 347 211 848 325 1180 108 312 243 646 406 1010 59 131 289 581 383 750 13
25 40 74 59 110 42 79 307 539 357 620 5 8 31 53 58 100 27 47 97 166 155 265
126 215 133 229 243 432 19 34 46 83 62 110 15 26 36 66 46 88 11 22 37 76 58
120 117 239 210 529 239 750 15 113 6 446 -15 565 -28 160 -38 205 -58 275
-11 39 -24 86 -29 105 -14 49 -39 119 -55 157 -8 17 -14 34 -14 37 0 8 -54
128 -74 166 -65 123 -141 251 -181 305 -110 152 -157 208 -270 324 -163 167
-329 307 -461 388 -180 111 -241 142 -406 209 -197 80 -334 118 -548 155 -98
17 -374 41 -420 37 -8 0 -82 -5 -164 -9z m299 -631 c39 -6 90 -10 115 -10 25
1 88 -10 140 -24 52 -14 116 -29 142 -34 25 -5 71 -20 100 -34 30 -14 66 -26
79 -26 14 0 29 -4 34 -9 6 -5 35 -19 65 -32 96 -41 262 -139 358 -210 287
-216 530 -551 630 -869 77 -245 103 -526 63 -675 -10 -39 -26 -113 -36 -165
-27 -149 -63 -294 -110 -440 -23 -74 -46 -152 -49 -172 -10 -54 -91 -210 -161
-308 -101 -142 -309 -333 -456 -419 -96 -57 -169 -96 -232 -125 -84 -40 -250
-96 -283 -96 -13 0 -35 -5 -51 -11 -26 -10 -55 -16 -188 -38 -27 -5 -156 -7
-285 -5 -237 4 -390 21 -458 50 -18 8 -39 14 -48 14 -21 0 -182 54 -224 76
-19 9 -46 23 -60 30 -14 6 -29 21 -35 33 -8 17 -19 21 -56 21 -31 0 -51 6 -60
16 -12 15 -6 16 79 9 60 -5 92 -4 92 3 0 6 -24 26 -52 45 -118 80 -167 115
-238 172 -76 60 -289 268 -347 338 -31 37 -53 48 -53 26 0 -8 -5 -8 -15 1 -27
22 -27 -13 -1 -60 14 -25 34 -61 45 -80 24 -45 158 -197 202 -230 18 -14 47
-39 64 -56 17 -17 51 -44 76 -59 24 -15 53 -36 64 -46 11 -11 31 -28 45 -39
19 -15 21 -19 9 -20 -9 0 -19 6 -22 14 -3 8 -24 20 -46 27 -23 7 -41 16 -41
20 0 5 -15 16 -32 25 -96 49 -247 184 -368 329 -186 221 -309 467 -355 711
-34 175 -25 500 20 794 8 52 19 140 24 195 13 128 31 196 87 320 144 318 375
576 684 762 164 99 369 182 535 218 44 9 95 21 113 27 32 10 223 24 357 26 39
1 102 -3 140 -10z"/>
<path d="M1877 8674 c-11 -12 3 -24 28 -24 13 0 26 4 29 9 10 15 -43 29 -57
15z"/>
<path d="M1790 8625 c-10 -12 -9 -16 5 -21 17 -7 38 13 29 28 -8 12 -20 10
-34 -7z"/>
<path d="M1674 8569 c-16 -17 -16 -22 -4 -29 24 -15 41 -11 38 8 -2 11 4 18
20 20 12 2 20 8 17 13 -11 16 -51 10 -71 -12z"/>
<path d="M1587 8512 c-22 -24 -21 -29 3 -42 25 -14 46 -4 30 15 -6 7 -8 20 -4
29 8 22 -9 20 -29 -2z"/>
<path d="M1516 8467 c-15 -11 -16 -17 -7 -35 14 -26 14 -42 0 -42 -6 0 -13 9
-16 20 -8 28 -15 26 -69 -25 -26 -25 -50 -45 -54 -45 -10 0 -70 -87 -70 -102
0 -7 4 -19 9 -27 14 -22 46 15 43 49 -2 19 2 30 15 34 10 4 19 2 21 -3 7 -20
27 -11 39 15 7 15 10 31 6 37 -4 7 0 8 11 4 13 -5 39 8 87 45 69 53 86 75 49
63 -13 -4 -22 -1 -26 9 -7 19 -15 20 -38 3z"/>
<path d="M2740 8321 c-53 -32 -96 -91 -105 -143 -11 -60 20 -146 66 -190 22
-21 47 -38 55 -38 8 0 25 -6 37 -14 66 -42 124 -26 206 56 40 39 51 59 57 93
9 66 -4 120 -44 174 -68 92 -180 118 -272 62z"/>
<path d="M3980 8191 c-31 -10 -29 -20 18 -84 56 -77 153 -240 199 -337 39 -81
58 -128 117 -285 15 -38 33 -81 40 -95 l14 -24 13 42 c10 34 10 54 0 100 -47
217 -170 474 -293 613 -29 33 -54 64 -56 70 -4 10 -16 10 -52 0z"/>
<path d="M2840 7789 c-24 -21 -25 -26 -30 -181 -4 -143 -7 -161 -24 -174 -16
-11 -76 -14 -312 -14 l-292 0 -31 -29 c-41 -39 -43 -88 -3 -131 25 -28 36 -32
137 -47 94 -13 127 -13 225 -2 170 18 270 16 287 -7 20 -27 18 -198 -3 -218
-13 -14 -54 -16 -297 -16 l-282 0 -105 -86 c-58 -47 -136 -111 -174 -142 -38
-32 -101 -82 -140 -112 -39 -30 -95 -77 -123 -105 -65 -63 -70 -99 -22 -158
25 -31 37 -37 69 -37 43 0 48 4 206 145 55 49 142 119 193 155 50 36 106 77
124 91 31 25 40 26 207 35 96 4 249 9 340 9 189 0 183 0 204 21 14 14 16 71
16 477 0 430 -1 464 -18 490 -10 15 -27 34 -38 42 -28 21 -85 18 -114 -6z"/>
<path d="M3096 7333 c-3 -3 -6 -48 -6 -99 l0 -93 55 -41 c144 -107 235 -297
235 -493 0 -176 -63 -322 -194 -452 -201 -200 -475 -245 -726 -121 -99 49
-115 61 -190 137 -63 64 -134 190 -151 267 -6 29 -16 52 -22 52 -17 -1 -137
-98 -144 -117 -16 -43 88 -242 183 -349 106 -120 312 -226 503 -259 161 -29
289 -11 435 59 80 39 232 147 286 204 209 222 275 531 175 823 -47 137 -158
293 -278 390 -65 53 -151 102 -161 92z"/>
</g>
</svg>
